<svg version="1.2" xmlns="http://www.w3.org/2000/svg" viewBox="0 0 1920 1920" width="1920" height="1920">
	<style>
		.s0 { fill: #ffffff;stroke: #000000;stroke-miterlimit:0 } 
	</style>
	<g id="Layer 1">
		<path id="Shape 1" fill-rule="evenodd" class="s0" d="m805.8 204.1l31-119.1 166.1-59 115.1 134.1-11 40 471.4 224.2 40-51 143.1 33 84.1 140.1-108 140-4.3 0.1 0.2 589.5 65.5 17 44 163-121 116-158.4-44.1-0.7-5.6-460.9 206.7 7 65-120 106-161-62-11-108-462-208-3 9-106 23-70-1-85-85 13-78 24-96 57-13 1-612-108-91 49-168 150.3-31.3 57.7 49.3zm-146.5 768.7l-0.3 24.2 4.3 8 597.7-0.4 12.5-20.6-30.2-49-571.4 1.1-20.2 33.1zm621.7-180.8l4.3-3.6-51.6-76.7zm-802.4-63.2l45.2-24 35.4 26.9 194.8-294.7-367 105-15 52zm345.4-410.8v-4l-16 8zm272.5-3.3l-0.4 3.4 19.7 5.9zm264.6 410.4l31-25 51.9 27 108.1-141-28-47-355-100zm262-18l-72 134 28 85-69 57 115 233.8zm-486 821.4l393.5-122.3-11.5-39.2 23.7-22.3-121.5-146.6-75.6 7.6zm35.8-714.2l-204.3-344.7-24.1 4-200.9 340.5zm-438.8 307.7l207.1 347.4 9.4-6.5 28.7 15.1 213.2-356.8zm47.3 404.4l-210.6-320.2-26.5 24.2-54.6-24.2-111.9 139.5 11.8 11.8-9.2 46.7zm-485.2-816.5l-0.9 514.3 91.3-182v-40.9l26.1-23.2-18.6-14.2-31.3-44.1 1.5-81.4z"/>
	</g>
</svg>